/* XPM */
static char * iconify_activeup_xpm[] = {
"22 22 58 1",
" 	c None",
".	c #A9C4E6",
"+	c #5E98E3",
"@	c #4C82C8",
"#	c #6395D3",
"$	c #7BA5DA",
"%	c #5B93DC",
"&	c #83AEE4",
"*	c #456898",
"=	c #497DC2",
"-	c #7AA3D7",
";	c #3A5B88",
">	c #588FD5",
",	c #81ACE1",
"'	c #436694",
")	c #477ABC",
"!	c #79A1D4",
"~	c #395985",
"{	c #558ACE",
"]	c #80A9DD",
"^	c #416390",
"/	c #4575B5",
"(	c #789FD1",
"_	c #375681",
":	c #5386C8",
"<	c #7FA7DA",
"[	c #40608C",
"}	c #4271AE",
"|	c #769DCD",
"1	c #36547C",
"2	c #5181C1",
"3	c #7EA5D7",
"4	c #3F5D88",
"5	c #3F6DA8",
"6	c #759BCA",
"7	c #345179",
"8	c #4E7CBA",
"9	c #7CA2D3",
"0	c #3D5A84",
"a	c #3C69A1",
"b	c #7399C7",
"c	c #324F75",
"d	c #FFFFFF",
"e	c #4B79B4",
"f	c #7BA1D0",
"g	c #3B5980",
"h	c #3B649B",
"i	c #7396C4",
"j	c #314C71",
"k	c #4874AC",
"l	c #799ECC",
"m	c #39567B",
"n	c #386195",
"o	c #567FB2",
"p	c #7195C1",
"q	c #456FA5",
"r	c #355C8F",
"s	c #000000",
"......................",
"++++++++++++++++++++++",
"@@@#$$$$$$$$$$$$$$$#@@",
"%%%&***************&%%",
"===-;;;;;;;;;;;;;;;-==",
">>>,''''''''''''''',>>",
")))!~~~~~~~~~~~~~~~!))",
"{{{]^^^^^^^^^^^^^^^]{{",
"///(_______________(//",
":::<[[[[[[[[[[[[[[[<::",
"}}}|111111111111111|}}",
"2223444444444444444322",
"5556777777777777777655",
"8889000000000000000988",
"aaabccdddddddddddccbaa",
"eeefggdddddddddddggfee",
"hhhijjjjjjjjjjjjjjjihh",
"kkklmmmmmmmmmmmmmmmlkk",
"nnnoppppppppppppppponn",
"qqqqqqqqqqqqqqqqqqqqqq",
"rrrrrrrrrrrrrrrrrrrrrr",
"ssssssssssssssssssssss"};
