/* XPM */
static char * maximize_inactive_xpm[] = {
"22 22 6 1",
" 	c None",
".	c #FFFFFF",
"+	c #F8F8F8",
"@	c #E0E0E0",
"#	c #D0D0D0",
"$	c #BDBDBD",
"......................",
"++++++++++++++++++++++",
"+++@###############@++",
"+++#+++++++++++++++#++",
"+++#+++++++++++++++#++",
"+++#++$$$$$$$$$$$++#++",
"+++#++$$$$$$$$$$$++#++",
"+++#++$+++++++++$++#++",
"+++#++$+++++++++$++#++",
"+++#++$+++++++++$++#++",
"+++#++$+++++++++$++#++",
"+++#++$+++++++++$++#++",
"+++#++$+++++++++$++#++",
"+++#++$+++++++++$++#++",
"+++#++$+++++++++$++#++",
"+++#++$$$$$$$$$$$++#++",
"+++#+++++++++++++++#++",
"+++#+++++++++++++++#++",
"+++@###############@++",
"++++++++++++++++++++++",
"++++++++++++++++++++++",
"++++++++++++++++++++++"};
